<svg version="1.1" id="Layer_1" xmlns="http://www.w3.org/2000/svg" xmlns:xlink="http://www.w3.org/1999/xlink" x="0px" y="0px"
	 width="100%" viewBox="0 0 1288 582" enable-background="new 0 0 1288 582" xml:space="preserve">
<path fill="#000000" opacity="1.000000" stroke="none" 
	d="
M942.000000,583.000000 
	C628.000000,583.000000 314.500031,583.000000 1.000042,583.000000 
	C1.000028,389.000031 1.000028,195.000061 1.000014,1.000068 
	C430.333282,1.000046 859.666565,1.000046 1289.000000,1.000023 
	C1289.000000,194.999939 1289.000000,388.999878 1289.000000,582.999878 
	C1173.500000,583.000000 1058.000000,583.000000 942.000000,583.000000 
M155.969955,219.379013 
	C155.635056,219.290634 155.300156,219.202240 154.322693,218.888275 
	C149.532562,213.847931 144.742447,208.807571 140.059830,203.880356 
	C138.017639,205.739609 136.580643,207.106903 135.081589,208.402405 
	C128.646072,213.964081 122.183014,219.493881 115.747925,225.056046 
	C109.782745,230.212051 103.849861,235.405411 97.885429,240.562286 
	C91.312393,246.245361 84.704987,251.888702 78.139626,257.580597 
	C71.955170,262.942230 65.827583,268.369537 59.635162,273.721893 
	C53.332493,279.169525 46.971725,284.549866 40.653820,289.979950 
	C33.702606,295.954346 26.771238,301.951843 19.094942,308.404022 
	C19.120768,342.599976 19.146595,376.795929 19.499523,411.784363 
	C20.659168,411.856171 21.818808,411.990784 22.978456,411.990906 
	C128.583099,412.000427 234.187744,412.000549 339.792389,411.988434 
	C341.070953,411.988281 342.349487,411.821655 343.497681,411.741791 
	C343.719299,411.106873 343.915558,410.806610 343.915985,410.506042 
	C343.953156,384.689026 343.999176,358.871887 343.913849,333.055206 
	C343.910309,331.979797 342.669678,330.908478 341.702606,329.250305 
	C329.883514,319.098633 318.064423,308.946960 306.127258,298.693878 
	C299.824249,304.529083 293.913788,310.001617 288.002533,315.473236 
	C282.878082,320.216492 277.752716,324.958710 271.633270,329.925262 
	C219.889343,329.948517 168.145416,329.973206 116.401497,329.982269 
	C115.581566,329.982422 114.761604,329.790985 114.267677,329.133026 
	C116.465874,326.868866 118.491638,324.399841 120.893951,322.378235 
	C128.743576,315.772583 136.834503,309.451813 144.631912,302.786682 
	C150.992142,297.350006 156.964264,291.460846 163.288498,285.980011 
	C172.449295,278.040924 181.770248,270.286591 191.028107,262.459625 
	C193.108856,260.700470 193.944351,258.819733 191.685272,256.590698 
	C183.526321,248.540283 175.364365,240.492950 167.806152,231.959976 
	C167.556915,231.601532 167.307678,231.243103 167.053040,230.980057 
	C167.053040,230.980057 167.148438,230.985229 166.988876,230.423950 
	C166.663727,230.235291 166.338577,230.046631 166.013443,229.986237 
	C166.013443,229.986237 166.141724,229.986145 165.988235,229.423737 
	C165.663467,229.235138 165.338684,229.046524 165.013824,228.985947 
	C165.013824,228.985947 165.141861,228.985947 164.988617,228.423523 
	C164.663879,228.234863 164.339157,228.046219 164.014313,227.985458 
	C164.014313,227.985458 164.142197,227.985474 163.987823,227.420990 
	C163.660904,227.233200 163.334000,227.045395 163.006058,226.992416 
	C163.006058,226.992416 163.140854,226.993332 162.998627,226.428268 
	C162.676163,226.236725 162.353699,226.045181 162.030121,225.971481 
	C162.030121,225.971481 162.147949,225.972397 162.000259,225.424423 
	C161.687759,225.234406 161.375259,225.044388 161.061188,224.942734 
	C161.061188,224.942734 161.149521,224.943939 160.996902,224.408279 
	C160.688858,224.223328 160.380814,224.038376 160.072189,223.929657 
	C160.072189,223.929657 160.148407,223.929825 159.992218,223.398758 
	C159.684708,223.216248 159.377213,223.033737 159.070251,222.925858 
	C159.070251,222.925858 159.144867,222.924896 158.985382,222.389236 
	C158.672180,222.209061 158.358978,222.028885 158.045975,221.953445 
	C158.045975,221.953445 158.150681,221.952972 157.998367,221.413559 
	C157.688751,221.227158 157.379120,221.040756 157.069611,220.928833 
	C157.069611,220.928833 157.144089,220.928299 156.983063,220.389221 
	C156.667053,220.209366 156.351028,220.029495 156.039795,219.937836 
	C156.039795,219.937836 156.127975,219.932755 155.969955,219.379013 
M343.557251,28.257055 
	C342.235596,28.161335 340.913971,27.981970 339.592316,27.981808 
	C234.333786,27.968849 129.075256,27.969900 23.816725,27.969902 
	C22.367203,27.969902 20.917683,27.969902 19.332344,27.969902 
	C19.169300,29.100821 18.999804,29.729607 18.999346,30.358515 
	C18.981045,55.507240 18.955153,80.656044 19.038330,105.804489 
	C19.042648,107.110283 19.994291,108.412941 20.784525,110.165070 
	C29.116547,117.530144 37.428738,124.917847 45.790211,132.249329 
	C49.208710,135.246735 52.733845,138.122513 56.117500,140.975250 
	C63.065060,134.842392 69.919868,128.972427 76.559814,122.868721 
	C81.266045,118.542557 85.681915,113.900536 91.235870,109.151733 
	C143.735596,109.151733 196.235336,109.151733 250.297623,109.151733 
	C242.233368,116.169945 235.379974,122.145584 228.513687,128.106339 
	C223.300766,132.631760 218.078400,137.146393 212.847626,141.651184 
	C206.008774,147.540909 199.177155,153.439285 192.305939,159.291092 
	C185.609024,164.994476 178.774139,170.540588 172.207214,176.388626 
	C170.537460,177.875595 167.099609,179.537628 170.326630,182.750641 
	C187.774460,200.122711 205.227737,217.489349 222.824738,235.002762 
	C226.195282,232.101624 229.508621,229.275391 232.793472,226.416397 
	C237.784119,222.072723 242.729813,217.677124 247.740234,213.356491 
	C255.019730,207.079132 262.368439,200.881866 269.633514,194.587936 
	C275.314850,189.666046 280.851715,184.576447 286.563995,179.691376 
	C295.414185,172.122787 304.413544,164.728271 313.244354,157.137451 
	C318.937500,152.243698 324.404877,147.088287 330.043610,142.129944 
	C334.331421,138.359512 338.729706,134.714691 343.843201,130.593750 
	C343.851013,96.751579 343.858856,62.909412 343.557251,28.257055 
M841.705261,417.928101 
	C884.438782,438.645691 925.396973,435.401398 965.000732,408.572205 
	C965.000732,410.597321 965.000732,412.378601 965.000732,414.159882 
	C965.000671,460.990082 964.999573,507.820312 965.001831,554.650513 
	C965.002136,561.201538 965.780212,561.977417 972.491089,561.994324 
	C980.823792,562.015320 989.156616,562.002014 997.489380,561.998718 
	C1004.851257,561.995728 1004.999023,561.847290 1004.999146,554.322937 
	C1005.000549,480.661194 1005.000000,406.999420 1005.000000,333.337677 
	C1005.000000,257.842712 1005.001526,182.347748 1004.996765,106.852776 
	C1004.996338,100.498550 1004.502808,100.012001 998.160461,100.003571 
	C989.327698,99.991844 980.494995,99.991226 971.662231,100.003899 
	C966.119690,100.011848 965.072571,101.030357 965.013672,106.672974 
	C964.955688,112.227097 965.001099,117.782295 965.001099,123.296669 
	C958.970032,119.308586 953.611755,115.280128 947.819458,112.023674 
	C928.342834,101.073784 907.005066,98.947800 885.256592,100.168907 
	C877.501099,100.604355 869.577637,102.074936 862.209351,104.516884 
	C848.204346,109.158310 835.571594,116.279053 824.120850,126.029541 
	C809.023804,138.884964 798.613464,154.518921 792.004089,172.888153 
	C786.936462,186.972366 786.068359,201.747650 786.026978,216.553253 
	C785.940735,247.384293 785.833679,278.217163 786.092224,309.046265 
	C786.181885,319.743042 786.833984,330.489471 788.093567,341.110687 
	C790.621521,362.428192 800.171692,380.771912 814.857971,396.028870 
	C822.641968,404.115295 832.272400,410.424286 841.705261,417.928101 
M1171.290161,100.003288 
	C1161.584229,99.995300 1151.858398,99.587006 1142.177002,100.069786 
	C1126.215210,100.865746 1111.409180,105.885178 1097.565796,113.793175 
	C1078.073853,124.927940 1062.917969,140.357117 1052.017822,159.961075 
	C1041.870605,178.210907 1038.147461,198.053665 1038.042603,218.657562 
	C1037.881348,250.315201 1037.765625,281.977051 1038.140503,313.631042 
	C1038.254883,323.277100 1038.925171,333.186981 1041.277588,342.486084 
	C1048.698853,371.821960 1065.430420,395.012299 1090.430054,412.086761 
	C1105.720459,422.529907 1122.578735,428.389191 1141.146362,430.209564 
	C1153.618774,431.432312 1165.842285,430.987885 1178.070068,428.957184 
	C1197.253906,425.771332 1214.317017,417.433350 1229.035889,405.093628 
	C1243.072632,393.325531 1254.644775,379.307617 1262.050171,362.134644 
	C1268.365601,347.488922 1271.452393,332.274353 1272.004028,316.437805 
	C1272.165283,311.809662 1269.895630,309.913910 1265.366333,309.969147 
	C1256.369995,310.078827 1247.356323,310.323242 1238.378052,309.906311 
	C1230.100220,309.521973 1228.713867,312.070740 1228.107788,320.173309 
	C1227.197510,332.340485 1223.497803,343.439514 1216.886963,353.562988 
	C1208.567871,366.302429 1197.770996,376.124786 1183.571655,382.235260 
	C1166.086548,389.759583 1148.499634,390.038910 1130.763306,383.869354 
	C1118.542358,379.618347 1108.453857,372.153564 1099.813843,362.453400 
	C1092.346924,354.070038 1086.915771,344.727814 1084.017944,333.932281 
	C1081.264893,323.675903 1081.397095,313.213562 1081.803467,302.689545 
	C1082.154053,293.604614 1081.876221,284.495422 1081.876221,275.000122 
	C1084.520630,275.000122 1086.487793,275.000092 1088.455078,275.000092 
	C1146.773315,275.000061 1205.091431,275.004730 1263.409668,274.994385 
	C1270.994995,274.993042 1271.997070,273.966492 1271.998657,266.457855 
	C1272.002197,249.295639 1272.208984,232.129715 1271.904785,214.972885 
	C1271.767944,207.260254 1271.497803,199.357407 1269.756470,191.898468 
	C1261.297607,155.667114 1240.776123,128.467575 1207.548584,111.226555 
	C1196.424927,105.454742 1184.457397,102.250427 1171.290161,100.003288 
M658.565186,383.099609 
	C636.550720,392.392883 615.239624,392.009247 594.554688,379.024048 
	C571.393311,364.484253 560.802307,343.643372 560.908752,316.426086 
	C561.180420,246.947037 561.000916,177.466217 560.996643,107.986107 
	C560.996216,101.095116 559.888855,100.009804 552.916077,100.002487 
	C544.585144,99.993744 536.254150,99.998810 527.923218,100.000847 
	C520.481201,100.002663 519.003052,101.478233 519.002625,108.985962 
	C518.998718,178.965927 518.927002,248.946091 519.098145,318.925629 
	C519.118225,327.119965 519.777832,335.453857 521.395447,343.469879 
	C523.781921,355.295868 527.915344,366.583710 534.400879,376.992981 
	C545.211975,394.344788 559.283508,408.150421 577.174744,418.026855 
	C589.209961,424.670654 601.942810,429.478821 615.781006,429.956543 
	C627.449524,430.359375 639.366211,431.141907 650.790222,429.335297 
	C669.253052,426.415558 685.624817,418.289093 700.047180,405.797333 
	C711.565002,395.821228 720.743713,384.299500 727.885254,371.114227 
	C737.445496,353.463409 739.810425,334.000549 739.882507,314.368774 
	C740.130859,246.722366 739.979858,179.074493 739.967041,111.427193 
	C739.966736,109.771385 739.846130,108.112091 739.708740,106.460480 
	C739.282837,101.340462 736.603455,99.629967 731.429932,99.882133 
	C722.619995,100.311554 713.771851,100.116310 704.944397,99.944283 
	C701.369202,99.874611 699.201416,101.027931 698.726074,104.701561 
	C698.475098,106.640816 698.030945,108.582184 698.029968,110.522774 
	C697.993896,181.835678 697.960266,253.148651 698.044861,324.461456 
	C698.056702,334.396820 695.262024,343.658752 690.776672,352.124939 
	C683.650146,365.576630 672.839722,375.764984 658.565186,383.099609 
M437.999939,257.500000 
	C437.999939,182.183899 437.999939,106.867813 437.999939,31.108381 
	C418.723145,34.765530 399.883698,38.688702 380.900116,41.704632 
	C375.931458,42.494003 375.963898,44.597019 375.965332,48.182716 
	C376.005524,147.845581 375.945618,247.508545 376.084045,347.171234 
	C376.096832,356.371735 376.728149,365.659760 378.094421,374.753540 
	C382.323853,402.904480 401.788239,417.159668 428.141571,418.880341 
	C448.816864,420.230286 469.142517,417.258514 488.870850,410.829926 
	C490.205078,410.395142 492.024933,407.993134 491.819153,406.822388 
	C489.657135,394.522064 487.128082,382.286224 484.931671,371.199493 
	C473.843872,372.172485 463.446106,373.285522 453.019257,373.921967 
	C447.111420,374.282562 441.638458,370.200714 440.097626,364.496521 
	C439.001129,360.437134 438.111176,356.173523 438.089142,351.996002 
	C437.924713,320.831360 437.999908,289.665497 437.999939,257.500000 
z"/>
<path fill="#4C00E9" opacity="1.000000" stroke="none" 
	d="
M841.387268,417.731873 
	C832.272400,410.424286 822.641968,404.115295 814.857971,396.028870 
	C800.171692,380.771912 790.621521,362.428192 788.093567,341.110687 
	C786.833984,330.489471 786.181885,319.743042 786.092224,309.046265 
	C785.833679,278.217163 785.940735,247.384293 786.026978,216.553253 
	C786.068359,201.747650 786.936462,186.972366 792.004089,172.888153 
	C798.613464,154.518921 809.023804,138.884964 824.120850,126.029541 
	C835.571594,116.279053 848.204346,109.158310 862.209351,104.516884 
	C869.577637,102.074936 877.501099,100.604355 885.256592,100.168907 
	C907.005066,98.947800 928.342834,101.073784 947.819458,112.023674 
	C953.611755,115.280128 958.970032,119.308586 965.001099,123.296669 
	C965.001099,117.782295 964.955688,112.227097 965.013672,106.672974 
	C965.072571,101.030357 966.119690,100.011848 971.662231,100.003899 
	C980.494995,99.991226 989.327698,99.991844 998.160461,100.003571 
	C1004.502808,100.012001 1004.996338,100.498550 1004.996765,106.852776 
	C1005.001526,182.347748 1005.000000,257.842712 1005.000000,333.337677 
	C1005.000000,406.999420 1005.000549,480.661194 1004.999146,554.322937 
	C1004.999023,561.847290 1004.851257,561.995728 997.489380,561.998718 
	C989.156616,562.002014 980.823792,562.015320 972.491089,561.994324 
	C965.780212,561.977417 965.002136,561.201538 965.001831,554.650513 
	C964.999573,507.820312 965.000671,460.990082 965.000732,414.159882 
	C965.000732,412.378601 965.000732,410.597321 965.000732,408.572205 
	C925.396973,435.401398 884.438782,438.645691 841.387268,417.731873 
M827.999878,293.500000 
	C827.999878,304.159119 827.886780,314.820099 828.061035,325.476349 
	C828.122314,329.226776 828.579163,333.033081 829.380066,336.699219 
	C835.717712,365.708466 864.253967,388.905304 893.225830,389.203552 
	C915.038879,389.428070 932.592834,381.941650 947.456787,366.181549 
	C960.058411,352.820129 965.031616,337.105652 965.012207,319.243713 
	C964.973450,283.602631 964.893250,247.961060 965.047546,212.320618 
	C965.121033,195.344803 960.580444,180.283463 949.645935,166.941696 
	C937.612305,152.258896 922.310181,143.304810 903.822632,141.247650 
	C884.000244,139.041946 865.938538,143.863098 850.868774,158.414627 
	C836.065247,172.709061 827.793701,189.281616 827.949280,210.059525 
	C828.155029,237.538269 827.999878,265.019714 827.999878,293.500000 
z"/>
<path fill="#0094AA" opacity="1.000000" stroke="none" 
	d="
M1171.743530,100.009628 
	C1184.457397,102.250427 1196.424927,105.454742 1207.548584,111.226555 
	C1240.776123,128.467575 1261.297607,155.667114 1269.756470,191.898468 
	C1271.497803,199.357407 1271.767944,207.260254 1271.904785,214.972885 
	C1272.208984,232.129715 1272.002197,249.295639 1271.998657,266.457855 
	C1271.997070,273.966492 1270.994995,274.993042 1263.409668,274.994385 
	C1205.091431,275.004730 1146.773315,275.000061 1088.455078,275.000092 
	C1086.487793,275.000092 1084.520630,275.000122 1081.876221,275.000122 
	C1081.876221,284.495422 1082.154053,293.604614 1081.803467,302.689545 
	C1081.397095,313.213562 1081.264893,323.675903 1084.017944,333.932281 
	C1086.915771,344.727814 1092.346924,354.070038 1099.813843,362.453400 
	C1108.453857,372.153564 1118.542358,379.618347 1130.763306,383.869354 
	C1148.499634,390.038910 1166.086548,389.759583 1183.571655,382.235260 
	C1197.770996,376.124786 1208.567871,366.302429 1216.886963,353.562988 
	C1223.497803,343.439514 1227.197510,332.340485 1228.107788,320.173309 
	C1228.713867,312.070740 1230.100220,309.521973 1238.378052,309.906311 
	C1247.356323,310.323242 1256.369995,310.078827 1265.366333,309.969147 
	C1269.895630,309.913910 1272.165283,311.809662 1272.004028,316.437805 
	C1271.452393,332.274353 1268.365601,347.488922 1262.050171,362.134644 
	C1254.644775,379.307617 1243.072632,393.325531 1229.035889,405.093628 
	C1214.317017,417.433350 1197.253906,425.771332 1178.070068,428.957184 
	C1165.842285,430.987885 1153.618774,431.432312 1141.146362,430.209564 
	C1122.578735,428.389191 1105.720459,422.529907 1090.430054,412.086761 
	C1065.430420,395.012299 1048.698853,371.821960 1041.277588,342.486084 
	C1038.925171,333.186981 1038.254883,323.277100 1038.140503,313.631042 
	C1037.765625,281.977051 1037.881348,250.315201 1038.042603,218.657562 
	C1038.147461,198.053665 1041.870605,178.210907 1052.017822,159.961075 
	C1062.917969,140.357117 1078.073853,124.927940 1097.565796,113.793175 
	C1111.409180,105.885178 1126.215210,100.865746 1142.177002,100.069786 
	C1151.858398,99.587006 1161.584229,99.995300 1171.743530,100.009628 
M1098.990479,168.517776 
	C1082.395874,186.682846 1080.131714,208.556992 1082.364380,231.600372 
	C1131.351562,231.600372 1180.056519,231.600372 1229.450439,231.600372 
	C1228.950317,223.421906 1229.160400,215.555176 1227.818359,207.962799 
	C1226.356445,199.691238 1224.691284,191.044785 1220.937988,183.669678 
	C1211.475098,165.076202 1196.681885,152.101318 1176.435791,145.553131 
	C1161.986816,140.879944 1147.715698,141.107101 1133.361206,145.343964 
	C1119.738159,149.364960 1108.691406,157.326721 1098.990479,168.517776 
z"/>
<path fill="#2E3BCF" opacity="1.000000" stroke="none" 
	d="
M20.504894,109.717064 
	C19.994291,108.412941 19.042648,107.110283 19.038330,105.804489 
	C18.955153,80.656044 18.981045,55.507240 18.999346,30.358515 
	C18.999804,29.729607 19.169300,29.100821 19.332344,27.969902 
	C20.917683,27.969902 22.367203,27.969902 23.816725,27.969902 
	C129.075256,27.969900 234.333786,27.968849 339.592316,27.981808 
	C340.913971,27.981970 342.235596,28.161335 343.359589,28.900593 
	C343.134216,63.367405 343.106537,97.190681 343.078857,131.013977 
	C338.729706,134.714691 334.331421,138.359512 330.043610,142.129944 
	C324.404877,147.088287 318.937500,152.243698 313.244354,157.137451 
	C304.413544,164.728271 295.414185,172.122787 286.563995,179.691376 
	C280.851715,184.576447 275.314850,189.666046 269.633514,194.587936 
	C262.368439,200.881866 255.019730,207.079132 247.740234,213.356491 
	C242.729813,217.677124 237.784119,222.072723 232.793472,226.416397 
	C229.508621,229.275391 226.195282,232.101624 222.824738,235.002762 
	C205.227737,217.489349 187.774460,200.122711 170.326630,182.750641 
	C167.099609,179.537628 170.537460,177.875595 172.207214,176.388626 
	C178.774139,170.540588 185.609024,164.994476 192.305939,159.291092 
	C199.177155,153.439285 206.008774,147.540909 212.847626,141.651184 
	C218.078400,137.146393 223.300766,132.631760 228.513687,128.106339 
	C235.379974,122.145584 242.233368,116.169945 250.297623,109.151733 
	C196.235336,109.151733 143.735596,109.151733 90.321243,109.207275 
	C68.079597,109.238625 46.752583,109.202744 25.425592,109.213211 
	C23.785278,109.214012 22.145123,109.541451 20.504894,109.717064 
z"/>
<path fill="#0094AA" opacity="1.000000" stroke="none" 
	d="
M658.936768,383.013245 
	C672.839722,375.764984 683.650146,365.576630 690.776672,352.124939 
	C695.262024,343.658752 698.056702,334.396820 698.044861,324.461456 
	C697.960266,253.148651 697.993896,181.835678 698.029968,110.522774 
	C698.030945,108.582184 698.475098,106.640816 698.726074,104.701561 
	C699.201416,101.027931 701.369202,99.874611 704.944397,99.944283 
	C713.771851,100.116310 722.619995,100.311554 731.429932,99.882133 
	C736.603455,99.629967 739.282837,101.340462 739.708740,106.460480 
	C739.846130,108.112091 739.966736,109.771385 739.967041,111.427193 
	C739.979858,179.074493 740.130859,246.722366 739.882507,314.368774 
	C739.810425,334.000549 737.445496,353.463409 727.885254,371.114227 
	C720.743713,384.299500 711.565002,395.821228 700.047180,405.797333 
	C685.624817,418.289093 669.253052,426.415558 650.790222,429.335297 
	C639.366211,431.141907 627.449524,430.359375 615.781006,429.956543 
	C601.942810,429.478821 589.209961,424.670654 577.174744,418.026855 
	C559.283508,408.150421 545.211975,394.344788 534.400879,376.992981 
	C527.915344,366.583710 523.781921,355.295868 521.395447,343.469879 
	C519.777832,335.453857 519.118225,327.119965 519.098145,318.925629 
	C518.927002,248.946091 518.998718,178.965927 519.002625,108.985962 
	C519.003052,101.478233 520.481201,100.002663 527.923218,100.000847 
	C536.254150,99.998810 544.585144,99.993744 552.916077,100.002487 
	C559.888855,100.009804 560.996216,101.095116 560.996643,107.986107 
	C561.000916,177.466217 561.180420,246.947037 560.908752,316.426086 
	C560.802307,343.643372 571.393311,364.484253 594.554688,379.024048 
	C615.239624,392.009247 636.550720,392.392883 658.936768,383.013245 
z"/>
<path fill="#4C00E9" opacity="1.000000" stroke="none" 
	d="
M437.999939,258.000000 
	C437.999908,289.665497 437.924713,320.831360 438.089142,351.996002 
	C438.111176,356.173523 439.001129,360.437134 440.097626,364.496521 
	C441.638458,370.200714 447.111420,374.282562 453.019257,373.921967 
	C463.446106,373.285522 473.843872,372.172485 484.931671,371.199493 
	C487.128082,382.286224 489.657135,394.522064 491.819153,406.822388 
	C492.024933,407.993134 490.205078,410.395142 488.870850,410.829926 
	C469.142517,417.258514 448.816864,420.230286 428.141571,418.880341 
	C401.788239,417.159668 382.323853,402.904480 378.094421,374.753540 
	C376.728149,365.659760 376.096832,356.371735 376.084045,347.171234 
	C375.945618,247.508545 376.005524,147.845581 375.965332,48.182716 
	C375.963898,44.597019 375.931458,42.494003 380.900116,41.704632 
	C399.883698,38.688702 418.723145,34.765530 437.999939,31.108381 
	C437.999939,106.867813 437.999939,182.183899 437.999939,258.000000 
z"/>
<path fill="#4C00E9" opacity="1.000000" stroke="none" 
	d="
M113.941658,329.688965 
	C114.761604,329.790985 115.581566,329.982422 116.401497,329.982269 
	C168.145416,329.973206 219.889343,329.948517 272.543854,329.921204 
	C296.304749,329.889862 319.155060,329.862549 342.005371,329.835236 
	C342.669678,330.908478 343.910309,331.979797 343.913849,333.055206 
	C343.999176,358.871887 343.953156,384.689026 343.915985,410.506042 
	C343.915558,410.806610 343.719299,411.106873 343.497681,411.741791 
	C342.349487,411.821655 341.070953,411.988281 339.792389,411.988434 
	C234.187744,412.000549 128.583099,412.000427 22.978456,411.990906 
	C21.818808,411.990784 20.659168,411.856171 19.542002,411.362823 
	C19.584480,410.941284 19.984360,410.829712 20.313473,410.769958 
	C23.275120,408.461060 25.935221,406.243286 28.535172,403.957123 
	C37.339287,396.215424 46.086193,388.408325 54.921745,380.702789 
	C67.100327,370.081787 79.331810,359.521332 91.555939,348.952667 
	C99.002930,342.514191 106.478767,336.109070 113.941658,329.688965 
z"/>
<path fill="#0194AA" opacity="1.000000" stroke="none" 
	d="
M114.104668,329.411011 
	C106.478767,336.109070 99.002930,342.514191 91.555939,348.952667 
	C79.331810,359.521332 67.100327,370.081787 54.921745,380.702789 
	C46.086193,388.408325 37.339287,396.215424 28.535172,403.957123 
	C25.935221,406.243286 23.275120,408.461060 20.313370,410.312408 
	C19.933172,375.922821 19.882195,341.931030 19.831219,307.939240 
	C26.771238,301.951843 33.702606,295.954346 40.653820,289.979950 
	C46.971725,284.549866 53.332493,279.169525 59.635162,273.721893 
	C65.827583,268.369537 71.955170,262.942230 78.139626,257.580597 
	C84.704987,251.888702 91.312393,246.245361 97.885429,240.562286 
	C103.849861,235.405411 109.782745,230.212051 115.747925,225.056046 
	C122.183014,219.493881 128.646072,213.964081 135.081589,208.402405 
	C136.580643,207.106903 138.017639,205.739609 140.059830,203.880356 
	C144.742447,208.807571 149.532562,213.847931 154.708969,219.332230 
	C155.439484,219.828369 155.783737,219.880554 156.127975,219.932755 
	C156.127975,219.932755 156.039795,219.937836 155.938156,220.300522 
	C156.272369,220.751572 156.708237,220.839935 157.144089,220.928299 
	C157.144089,220.928299 157.069611,220.928833 156.892212,221.277664 
	C157.193451,221.735321 157.672058,221.844147 158.150681,221.952972 
	C158.150681,221.952972 158.045975,221.953445 157.924469,222.311157 
	C158.250275,222.754211 158.697571,222.839554 159.144867,222.924896 
	C159.144867,222.924896 159.070251,222.925858 158.893692,223.293274 
	C159.194229,223.750397 159.671310,223.840118 160.148407,223.929825 
	C160.148407,223.929825 160.072189,223.929657 159.888596,224.284912 
	C160.186508,224.741440 160.668015,224.842697 161.149521,224.943939 
	C161.149521,224.943939 161.061188,224.942734 160.901794,225.273682 
	C161.210907,225.727219 161.679428,225.849808 162.147949,225.972412 
	C162.147949,225.972397 162.030121,225.971481 161.938477,226.276352 
	C162.278183,226.718597 162.709518,226.855957 163.140854,226.993332 
	C163.140854,226.993332 163.006058,226.992416 162.960327,227.288406 
	C163.323792,227.718094 163.733002,227.851776 164.142197,227.985474 
	C164.142197,227.985474 164.014313,227.985458 163.950363,228.287262 
	C164.304901,228.721344 164.723373,228.853653 165.141861,228.985947 
	C165.141861,228.985947 165.013824,228.985947 164.950287,229.287567 
	C165.305084,229.721512 165.723404,229.853836 166.141724,229.986145 
	C166.141724,229.986145 166.013443,229.986237 165.951447,230.284088 
	C166.309113,230.716370 166.728775,230.850800 167.148438,230.985229 
	C167.148438,230.985229 167.053040,230.980057 166.889709,231.176575 
	C166.885437,231.730209 167.044495,232.087341 167.203552,232.444458 
	C175.364365,240.492950 183.526321,248.540283 191.685272,256.590698 
	C193.944351,258.819733 193.108856,260.700470 191.028107,262.459625 
	C181.770248,270.286591 172.449295,278.040924 163.288498,285.980011 
	C156.964264,291.460846 150.992142,297.350006 144.631912,302.786682 
	C136.834503,309.451813 128.743576,315.772583 120.893951,322.378235 
	C118.491638,324.399841 116.465874,326.868866 114.104668,329.411011 
z"/>
<path fill="#0393A8" opacity="1.000000" stroke="none" 
	d="
M20.644711,109.941071 
	C22.145123,109.541451 23.785278,109.214012 25.425592,109.213211 
	C46.752583,109.202744 68.079597,109.238625 89.817001,109.331161 
	C85.681915,113.900536 81.266045,118.542557 76.559814,122.868721 
	C69.919868,128.972427 63.065060,134.842392 56.117500,140.975250 
	C52.733845,138.122513 49.208710,135.246735 45.790211,132.249329 
	C37.428738,124.917847 29.116547,117.530144 20.644711,109.941071 
z"/>
<path fill="#0393A8" opacity="1.000000" stroke="none" 
	d="
M341.854004,329.542786 
	C319.155060,329.862549 296.304749,329.889862 273.041077,329.809265 
	C277.752716,324.958710 282.878082,320.216492 288.002533,315.473236 
	C293.913788,310.001617 299.824249,304.529083 306.127258,298.693878 
	C318.064423,308.946960 329.883514,319.098633 341.854004,329.542786 
z"/>
<path fill="#BFBFBF" opacity="1.000000" stroke="none" 
	d="
M19.463078,308.171631 
	C19.882195,341.931030 19.933172,375.922821 19.984255,410.372162 
	C19.984360,410.829712 19.584480,410.941284 19.378452,410.966583 
	C19.146595,376.795929 19.120768,342.599976 19.463078,308.171631 
z"/>
<path fill="#C8C8C8" opacity="1.000000" stroke="none" 
	d="
M343.461029,130.803864 
	C343.106537,97.190681 343.134216,63.367405 343.514282,29.305687 
	C343.858856,62.909412 343.851013,96.751579 343.461029,130.803864 
z"/>
<path fill="#C1C1C1" opacity="1.000000" stroke="none" 
	d="
M162.074097,225.698425 
	C161.679428,225.849808 161.210907,225.727219 160.902557,225.229492 
	C161.375259,225.044388 161.687759,225.234406 162.074097,225.698425 
z"/>
<path fill="#C1C1C1" opacity="1.000000" stroke="none" 
	d="
M163.069733,226.710800 
	C162.709518,226.855957 162.278183,226.718597 161.939026,226.217438 
	C162.353699,226.045181 162.676163,226.236725 163.069733,226.710800 
z"/>
<path fill="#C1C1C1" opacity="1.000000" stroke="none" 
	d="
M164.065002,227.703232 
	C163.733002,227.851776 163.323792,227.718094 162.960846,227.221008 
	C163.334000,227.045395 163.660904,227.233200 164.065002,227.703232 
z"/>
<path fill="#C1C1C1" opacity="1.000000" stroke="none" 
	d="
M165.065247,228.704742 
	C164.723373,228.853653 164.304901,228.721344 163.950409,228.223312 
	C164.339157,228.046219 164.663879,228.234863 165.065247,228.704742 
z"/>
<path fill="#C1C1C1" opacity="1.000000" stroke="none" 
	d="
M166.064972,229.704956 
	C165.723404,229.853836 165.305084,229.721512 164.950348,229.223557 
	C165.338684,229.046524 165.663467,229.235138 166.064972,229.704956 
z"/>
<path fill="#C1C1C1" opacity="1.000000" stroke="none" 
	d="
M167.068665,230.704590 
	C166.728775,230.850800 166.309113,230.716370 165.951447,230.219955 
	C166.338577,230.046631 166.663727,230.235291 167.068665,230.704590 
z"/>
<path fill="#C1C1C1" opacity="1.000000" stroke="none" 
	d="
M167.504852,232.202209 
	C167.044495,232.087341 166.885437,231.730209 166.892410,231.128876 
	C167.307678,231.243103 167.556915,231.601532 167.504852,232.202209 
z"/>
<path fill="#C1C1C1" opacity="1.000000" stroke="none" 
	d="
M161.073212,224.676117 
	C160.668015,224.842697 160.186508,224.741440 159.888885,224.246796 
	C160.380814,224.038376 160.688858,224.223328 161.073212,224.676117 
z"/>
<path fill="#C1C1C1" opacity="1.000000" stroke="none" 
	d="
M160.070312,223.664291 
	C159.671310,223.840118 159.194229,223.750397 158.893433,223.255951 
	C159.377213,223.033737 159.684708,223.216248 160.070312,223.664291 
z"/>
<path fill="#C1C1C1" opacity="1.000000" stroke="none" 
	d="
M159.065125,222.657074 
	C158.697571,222.839554 158.250275,222.754211 157.924377,222.258789 
	C158.358978,222.028885 158.672180,222.209061 159.065125,222.657074 
z"/>
<path fill="#C1C1C1" opacity="1.000000" stroke="none" 
	d="
M158.074524,221.683258 
	C157.672058,221.844147 157.193451,221.735321 156.892166,221.240417 
	C157.379120,221.040756 157.688751,221.227158 158.074524,221.683258 
z"/>
<path fill="#C1C1C1" opacity="1.000000" stroke="none" 
	d="
M157.063568,220.658752 
	C156.708237,220.839935 156.272369,220.751572 155.935760,220.256424 
	C156.351028,220.029495 156.667053,220.209366 157.063568,220.658752 
z"/>
<path fill="#C1C1C1" opacity="1.000000" stroke="none" 
	d="
M156.048965,219.655884 
	C155.783737,219.880554 155.439484,219.828369 155.030243,219.445023 
	C155.300156,219.202240 155.635056,219.290634 156.048965,219.655884 
z"/>
<path fill="#000000" opacity="1.000000" stroke="none" 
	d="
M827.999878,293.000000 
	C827.999878,265.019714 828.155029,237.538269 827.949280,210.059525 
	C827.793701,189.281616 836.065247,172.709061 850.868774,158.414627 
	C865.938538,143.863098 884.000244,139.041946 903.822632,141.247650 
	C922.310181,143.304810 937.612305,152.258896 949.645935,166.941696 
	C960.580444,180.283463 965.121033,195.344803 965.047546,212.320618 
	C964.893250,247.961060 964.973450,283.602631 965.012207,319.243713 
	C965.031616,337.105652 960.058411,352.820129 947.456787,366.181549 
	C932.592834,381.941650 915.038879,389.428070 893.225830,389.203552 
	C864.253967,388.905304 835.717712,365.708466 829.380066,336.699219 
	C828.579163,333.033081 828.122314,329.226776 828.061035,325.476349 
	C827.886780,314.820099 827.999878,304.159119 827.999878,293.000000 
z"/>
<path fill="#000000" opacity="1.000000" stroke="none" 
	d="
M1099.246582,168.267334 
	C1108.691406,157.326721 1119.738159,149.364960 1133.361206,145.343964 
	C1147.715698,141.107101 1161.986816,140.879944 1176.435791,145.553131 
	C1196.681885,152.101318 1211.475098,165.076202 1220.937988,183.669678 
	C1224.691284,191.044785 1226.356445,199.691238 1227.818359,207.962799 
	C1229.160400,215.555176 1228.950317,223.421906 1229.450439,231.600372 
	C1180.056519,231.600372 1131.351562,231.600372 1082.364380,231.600372 
	C1080.131714,208.556992 1082.395874,186.682846 1099.246582,168.267334 
z"/>
</svg>