<svg version="1.1" id="Layer_1" xmlns="http://www.w3.org/2000/svg" xmlns:xlink="http://www.w3.org/1999/xlink" x="0px" y="0px"
	 width="100%" viewBox="0 0 498 501" enable-background="new 0 0 498 501" xml:space="preserve">
<path fill="#000000" opacity="1.000000" stroke="none" 
	d="
M265.000000,502.000000 
	C176.666687,502.000000 88.833374,502.000000 1.000047,502.000000 
	C1.000031,335.000061 1.000031,168.000122 1.000016,1.000137 
	C166.999893,1.000091 332.999786,1.000091 498.999756,1.000046 
	C498.999847,167.999863 498.999847,334.999725 498.999939,501.999786 
	C421.166656,502.000000 343.333344,502.000000 265.000000,502.000000 
M412.880585,163.535599 
	C412.865417,129.689957 412.850250,95.844315 412.480469,61.222603 
	C411.321075,61.148495 410.161713,61.009594 409.002319,61.009487 
	C303.561188,60.999550 198.120056,60.999096 92.678925,61.012299 
	C91.237839,61.012478 89.796768,61.193913 88.376450,61.289352 
	C88.215019,62.097858 88.038368,62.570644 88.037971,63.043579 
	C88.016617,88.362671 87.998589,113.681793 88.043381,139.000793 
	C88.045204,140.033020 88.653091,141.064163 89.249466,142.707718 
	C94.044334,146.852264 98.861862,150.970947 103.628746,155.147430 
	C110.762962,161.398056 117.861588,167.689285 125.073830,174.050110 
	C132.537964,167.385010 140.001984,160.856522 147.301697,154.149246 
	C151.512283,150.280380 155.457458,146.122665 160.516769,142.018433 
	C192.515198,142.012283 224.513641,141.984802 256.512054,142.007706 
	C277.007751,142.022385 297.503357,142.111404 317.964081,142.859619 
	C312.208984,147.885040 306.441254,152.896118 300.702148,157.939728 
	C294.402100,163.476303 288.156158,169.074631 281.835724,174.587769 
	C275.043213,180.512726 268.183746,186.360916 261.367920,192.259247 
	C254.538895,198.168945 247.888657,204.300949 240.835846,209.929260 
	C237.650787,212.471008 237.405197,214.036606 240.310547,216.909332 
	C256.896515,233.309067 273.341736,249.851135 289.847961,266.331635 
	C290.516418,266.999084 291.317383,267.533875 292.107330,268.171387 
	C298.001434,262.976929 303.662384,257.991974 309.318787,253.001831 
	C314.696960,248.257095 320.002808,243.427567 325.463684,238.780136 
	C331.710236,233.464035 338.205475,228.437057 344.388916,223.050613 
	C352.969391,215.576050 361.298187,207.813141 369.851501,200.306717 
	C376.840302,194.173294 384.010895,188.247421 391.078674,182.203522 
	C393.907684,179.784332 396.658661,177.274033 399.478180,174.843475 
	C403.690216,171.212402 407.931458,167.615189 412.880585,163.535599 
M88.107391,341.415741 
	C88.127724,375.608612 88.148048,409.801514 88.515297,444.774963 
	C89.840897,444.849945 91.166496,444.990387 92.492104,444.990509 
	C197.750488,445.000641 303.008881,445.000916 408.267273,444.988678 
	C409.712555,444.988525 411.157806,444.820984 412.468353,444.739929 
	C412.700775,444.104889 412.905579,443.806122 412.906067,443.507050 
	C412.946808,417.693481 412.995911,391.879761 412.913269,366.066528 
	C412.909790,364.986237 411.667603,363.909973 410.721985,362.235657 
	C398.856903,352.063477 386.991821,341.891296 375.100006,331.696198 
	C368.926025,337.345703 363.174438,342.563843 357.474304,347.837616 
	C352.080170,352.828278 346.740051,357.877258 340.394531,362.980713 
	C308.414124,362.987122 276.433716,363.014984 244.453323,362.992279 
	C223.969193,362.977722 203.485107,362.888580 183.032394,362.143372 
	C186.351288,359.264221 189.697449,356.415802 192.982925,353.498962 
	C198.434647,348.658936 203.782913,343.700592 209.292740,338.928284 
	C216.267471,332.887115 223.369598,326.993225 230.399399,321.015442 
	C237.026733,315.379852 243.679642,309.772827 250.229401,304.048065 
	C254.623199,300.207703 258.856720,296.183929 263.644287,291.800629 
	C244.890732,273.204254 226.703400,255.169342 208.728012,237.344620 
	C201.581894,243.297668 194.436035,249.058777 187.507278,255.070114 
	C178.452408,262.926056 169.601654,271.016785 160.603500,278.938782 
	C150.760132,287.604919 140.850464,296.195831 130.966110,304.815430 
	C127.617203,307.735779 124.282722,310.673431 120.896996,313.550659 
	C114.659698,318.851227 108.368057,324.087982 102.139984,329.399292 
	C97.671753,333.209778 93.270065,337.098297 88.107391,341.415741 
z"/>
<path fill="#0017E8" opacity="1.000000" stroke="none" 
	d="
M183.001007,362.832886 
	C203.485107,362.888580 223.969193,362.977722 244.453323,362.992279 
	C276.433716,363.014984 308.414124,362.987122 341.327271,362.971924 
	C365.174164,362.919342 388.088348,362.875580 411.002533,362.831818 
	C411.667603,363.909973 412.909790,364.986237 412.913269,366.066528 
	C412.995911,391.879761 412.946808,417.693481 412.906067,443.507050 
	C412.905579,443.806122 412.700775,444.104889 412.468353,444.739929 
	C411.157806,444.820984 409.712555,444.988525 408.267273,444.988678 
	C303.008881,445.000916 197.750488,445.000641 92.492104,444.990509 
	C91.166496,444.990387 89.840897,444.849945 88.548935,444.363770 
	C88.582581,443.952576 88.981865,443.834747 89.306305,443.758484 
	C91.799538,441.908875 94.025436,440.200470 96.127197,438.350952 
	C105.048935,430.499939 113.899124,422.567413 122.840584,414.739075 
	C135.496658,403.658447 148.183884,392.613037 160.909302,381.612152 
	C168.220688,375.291626 175.633743,369.088715 183.001007,362.832886 
z"/>
<path fill="#0017E8" opacity="1.000000" stroke="none" 
	d="
M88.978615,142.095810 
	C88.653091,141.064163 88.045204,140.033020 88.043381,139.000793 
	C87.998589,113.681793 88.016617,88.362671 88.037971,63.043579 
	C88.038368,62.570644 88.215019,62.097858 88.376450,61.289352 
	C89.796768,61.193913 91.237839,61.012478 92.678925,61.012299 
	C198.120056,60.999096 303.561188,60.999550 409.002319,61.009487 
	C410.161713,61.009594 411.321075,61.148495 412.445801,61.631577 
	C412.411102,62.040546 412.003021,62.163109 411.655334,62.136173 
	C401.911224,70.027107 392.434875,77.852516 383.141052,85.889008 
	C373.957825,93.829849 364.995789,102.025955 355.866852,110.030396 
	C349.313446,115.776573 342.667694,121.418327 336.021210,127.057243 
	C330.043488,132.128815 324.008667,137.133102 317.999023,142.167084 
	C297.503357,142.111404 277.007751,142.022385 256.512054,142.007706 
	C224.513641,141.984802 192.515198,142.012283 159.584763,142.026764 
	C135.428040,142.055344 112.203331,142.075577 88.978615,142.095810 
z"/>
<path fill="#3894A8" opacity="1.000000" stroke="none" 
	d="
M183.016708,362.488129 
	C175.633743,369.088715 168.220688,375.291626 160.909302,381.612152 
	C148.183884,392.613037 135.496658,403.658447 122.840584,414.739075 
	C113.899124,422.567413 105.048935,430.499939 96.127197,438.350952 
	C94.025436,440.200470 91.799538,441.908875 89.308006,443.301117 
	C88.936401,408.930664 88.887543,374.941345 88.838684,340.952026 
	C93.270065,337.098297 97.671753,333.209778 102.139984,329.399292 
	C108.368057,324.087982 114.659698,318.851227 120.896996,313.550659 
	C124.282722,310.673431 127.617203,307.735779 130.966110,304.815430 
	C140.850464,296.195831 150.760132,287.604919 160.603500,278.938782 
	C169.601654,271.016785 178.452408,262.926056 187.507278,255.070114 
	C194.436035,249.058777 201.581894,243.297668 208.728012,237.344620 
	C226.703400,255.169342 244.890732,273.204254 263.644287,291.800629 
	C258.856720,296.183929 254.623199,300.207703 250.229401,304.048065 
	C243.679642,309.772827 237.026733,315.379852 230.399399,321.015442 
	C223.369598,326.993225 216.267471,332.887115 209.292740,338.928284 
	C203.782913,343.700592 198.434647,348.658936 192.982925,353.498962 
	C189.697449,356.415802 186.351288,359.264221 183.016708,362.488129 
z"/>
<path fill="#3894A8" opacity="1.000000" stroke="none" 
	d="
M317.981567,142.513336 
	C324.008667,137.133102 330.043488,132.128815 336.021210,127.057243 
	C342.667694,121.418327 349.313446,115.776573 355.866852,110.030396 
	C364.995789,102.025955 373.957825,93.829849 383.141052,85.889008 
	C392.434875,77.852516 401.911224,70.027107 411.653351,62.593544 
	C412.052826,96.719757 412.106537,130.361649 412.160278,164.003571 
	C407.931458,167.615189 403.690216,171.212402 399.478180,174.843475 
	C396.658661,177.274033 393.907684,179.784332 391.078674,182.203522 
	C384.010895,188.247421 376.840302,194.173294 369.851501,200.306717 
	C361.298187,207.813141 352.969391,215.576050 344.388916,223.050613 
	C338.205475,228.437057 331.710236,233.464035 325.463684,238.780136 
	C320.002808,243.427567 314.696960,248.257095 309.318787,253.001831 
	C303.662384,257.991974 298.001434,262.976929 292.107330,268.171387 
	C291.317383,267.533875 290.516418,266.999084 289.847961,266.331635 
	C273.341736,249.851135 256.896515,233.309067 240.310547,216.909332 
	C237.405197,214.036606 237.650787,212.471008 240.835846,209.929260 
	C247.888657,204.300949 254.538895,198.168945 261.367920,192.259247 
	C268.183746,186.360916 275.043213,180.512726 281.835724,174.587769 
	C288.156158,169.074631 294.402100,163.476303 300.702148,157.939728 
	C306.441254,152.896118 312.208984,147.885040 317.981567,142.513336 
z"/>
<path fill="#3993A7" opacity="1.000000" stroke="none" 
	d="
M89.114044,142.401764 
	C112.203331,142.075577 135.428040,142.055344 159.087433,142.065033 
	C155.457458,146.122665 151.512283,150.280380 147.301697,154.149246 
	C140.001984,160.856522 132.537964,167.385010 125.073830,174.050110 
	C117.861588,167.689285 110.762962,161.398056 103.628746,155.147430 
	C98.861862,150.970947 94.044334,146.852264 89.114044,142.401764 
z"/>
<path fill="#3993A8" opacity="1.000000" stroke="none" 
	d="
M410.862244,362.533752 
	C388.088348,362.875580 365.174164,362.919342 341.818054,362.931824 
	C346.740051,357.877258 352.080170,352.828278 357.474304,347.837616 
	C363.174438,342.563843 368.926025,337.345703 375.100006,331.696198 
	C386.991821,341.891296 398.856903,352.063477 410.862244,362.533752 
z"/>
<path fill="#BDBDBD" opacity="1.000000" stroke="none" 
	d="
M88.473038,341.183868 
	C88.887543,374.941345 88.936401,408.930664 88.983566,443.377380 
	C88.981865,443.834747 88.582581,443.952576 88.375481,443.973480 
	C88.148048,409.801514 88.127724,375.608612 88.473038,341.183868 
z"/>
<path fill="#C6C6C6" opacity="1.000000" stroke="none" 
	d="
M412.520416,163.769577 
	C412.106537,130.361649 412.052826,96.719757 412.001038,62.620483 
	C412.003021,62.163109 412.411102,62.040546 412.623108,62.019611 
	C412.850250,95.844315 412.865417,129.689957 412.520416,163.769577 
z"/>
</svg>